<svg width="101" height="101" viewBox="0 0 101 101" fill="none" xmlns="http://www.w3.org/2000/svg">
<rect x="0.5" y="0.5" width="100" height="100" rx="24" fill="#181818"/>
<path d="M88.5126 21.1625L84.7626 17.4813C84.294 17.0142 83.6594 16.7519 82.9978 16.7519C82.3362 16.7519 81.7015 17.0142 81.2329 17.4813L66.7501 31.7859L61.0173 26.2234C60.5477 25.7579 59.9129 25.4973 59.2516 25.4988C58.5904 25.5003 57.9567 25.7636 57.4892 26.2313L53.7392 29.9813C53.2712 30.45 53.0083 31.0853 53.0083 31.7477C53.0083 32.41 53.2712 33.0453 53.7392 33.5141L64.9298 44.7641C65.162 44.9963 65.4376 45.1805 65.7409 45.3061C66.0443 45.4318 66.3694 45.4965 66.6978 45.4965C67.0261 45.4965 67.3513 45.4318 67.6546 45.3061C67.958 45.1805 68.2336 44.9963 68.4657 44.7641L88.5204 24.7047C88.7531 24.4719 88.9374 24.1955 89.063 23.8913C89.1886 23.5871 89.2528 23.2611 89.2521 22.932C89.2514 22.6029 89.1857 22.2772 89.0588 21.9735C88.9319 21.6699 88.7463 21.3943 88.5126 21.1625ZM66.6907 43L55.5001 31.75L59.2501 28C59.2547 28.0038 59.2588 28.008 59.2626 28.0125L65.8798 34.4328C66.1134 34.6614 66.4272 34.7894 66.754 34.7894C67.0808 34.7894 67.3946 34.6614 67.6282 34.4328L83.0095 19.25L86.7501 22.9375L66.6907 43Z" fill="#3B83F6"/>
<path d="M66.6907 43L55.5001 31.75L59.2501 28C59.2547 28.0038 59.2588 28.008 59.2626 28.0125L65.8798 34.4328C66.1134 34.6614 66.4272 34.7894 66.754 34.7894C67.0808 34.7894 67.3946 34.6614 67.6282 34.4328L83.0095 19.25L86.7501 22.9375L66.6907 43Z" fill="#3B83F6"/>
<rect x="10.5" y="57.5" width="30" height="3" rx="1.5" fill="white"/>
<rect x="10.5" y="67.5" width="40" height="3" rx="1.5" fill="white"/>
<rect x="10.5" y="77.5" width="30" height="3" rx="1.5" fill="white"/>
</svg>
