<svg width="475" height="105" viewBox="0 0 475 105" fill="none" xmlns="http://www.w3.org/2000/svg">
<rect x="0.5" y="2.5" width="100" height="100" rx="24" fill="#181818"/>
<path d="M88.5126 23.1625L84.7626 19.4813C84.294 19.0142 83.6594 18.7519 82.9978 18.7519C82.3362 18.7519 81.7015 19.0142 81.2329 19.4813L66.7501 33.7859L61.0173 28.2234C60.5477 27.7579 59.9129 27.4973 59.2516 27.4988C58.5904 27.5003 57.9567 27.7636 57.4892 28.2313L53.7392 31.9813C53.2712 32.45 53.0083 33.0853 53.0083 33.7477C53.0083 34.41 53.2712 35.0453 53.7392 35.5141L64.9298 46.7641C65.162 46.9963 65.4376 47.1805 65.7409 47.3061C66.0443 47.4318 66.3694 47.4965 66.6978 47.4965C67.0261 47.4965 67.3513 47.4318 67.6546 47.3061C67.958 47.1805 68.2336 46.9963 68.4657 46.7641L88.5204 26.7047C88.7531 26.4719 88.9374 26.1955 89.063 25.8913C89.1886 25.5871 89.2528 25.2611 89.2521 24.932C89.2514 24.6029 89.1857 24.2772 89.0588 23.9735C88.9319 23.6699 88.7463 23.3943 88.5126 23.1625ZM66.6907 45L55.5001 33.75L59.2501 30C59.2547 30.0038 59.2588 30.008 59.2626 30.0125L65.8798 36.4328C66.1134 36.6614 66.4272 36.7894 66.754 36.7894C67.0808 36.7894 67.3946 36.6614 67.6282 36.4328L83.0095 21.25L86.7501 24.9375L66.6907 45Z" fill="#3B83F6"/>
<path d="M66.6907 45L55.5001 33.75L59.2501 30C59.2547 30.0038 59.2588 30.008 59.2626 30.0125L65.8798 36.4328C66.1134 36.6614 66.4272 36.7894 66.754 36.7894C67.0808 36.7894 67.3946 36.6614 67.6282 36.4328L83.0095 21.25L86.7501 24.9375L66.6907 45Z" fill="#3B83F6"/>
<rect x="10.5" y="59.5" width="30" height="3" rx="1.5" fill="#E8E8E8"/>
<rect x="10.5" y="69.5" width="40" height="3" rx="1.5" fill="#E8E8E8"/>
<rect x="10.5" y="79.5" width="30" height="3" rx="1.5" fill="#E8E8E8"/>
<path d="M108.844 23.875H163.219V42.625H154.781V38.875C154.781 38.1094 154.711 37.3203 154.57 36.5078C154.445 35.6953 154.242 34.8906 153.961 34.0938C153.695 33.2969 153.305 32.6484 152.789 32.1484C152.273 31.6328 151.688 31.375 151.031 31.375H143.531V74.5H151.031V82H121.031V74.5H128.531V31.375H121.031C120.375 31.375 119.789 31.6328 119.273 32.1484C118.758 32.6484 118.359 33.2969 118.078 34.0938C117.812 34.8906 117.609 35.6953 117.469 36.5078C117.344 37.3203 117.281 38.1094 117.281 38.875V42.625H108.844V23.875ZM160.312 63.25V55.75H185.625V63.25H160.312ZM211.875 23.875H222.188L244.617 74.5H250.312V82H220.312V74.5H227.812L224.484 67H203.297L200.18 74.5H214.688V82H184.688V74.5H190.805L211.875 23.875ZM206.414 59.5H221.156L215.344 46.375C214.594 44.6562 214 42.9688 213.562 41.3125C212.953 43.4688 212.391 45.1562 211.875 46.375L206.414 59.5ZM255 23.875H286.875V31.375H277.5V74.5H292.5C293.156 74.5 293.742 74.25 294.258 73.75C294.773 73.2344 295.164 72.5781 295.43 71.7812C295.711 70.9844 295.914 70.1797 296.039 69.3672C296.18 68.5547 296.25 67.7656 296.25 67V59.5H304.688V82H255V74.5H262.5V31.375H255V23.875ZM311.25 23.875H341.25V31.375H333.75V74.5H341.25V82H311.25V74.5H318.75V31.375H311.25V23.875ZM374.062 52H405.938V60.4375H400.312V82H396.562L391.078 77.875C387.625 81.25 382.578 82.9375 375.938 82.9375C373.141 82.9375 370.469 82.6406 367.922 82.0469C365.391 81.4688 363.094 80.6562 361.031 79.6094C358.984 78.5625 357.094 77.3125 355.359 75.8594C353.625 74.4062 352.125 72.8047 350.859 71.0547C349.594 69.2891 348.516 67.4219 347.625 65.4531C346.75 63.4688 346.094 61.4297 345.656 59.3359C345.219 57.2266 345 55.0938 345 52.9375C345 50.7812 345.219 48.6562 345.656 46.5625C346.094 44.4531 346.75 42.4141 347.625 40.4453C348.516 38.4609 349.594 36.5938 350.859 34.8438C352.125 33.0781 353.625 31.4688 355.359 30.0156C357.094 28.5625 358.984 27.3125 361.031 26.2656C363.094 25.2188 365.391 24.4062 367.922 23.8281C370.469 23.2344 373.141 22.9375 375.938 22.9375C384.141 22.9375 390.703 25.125 395.625 29.5C397.641 31.2812 399.078 33.0781 399.938 34.8906C400.812 36.6875 401.25 38.9531 401.25 41.6875C401.25 43.7656 400.516 45.5391 399.047 47.0078C397.594 48.4609 395.828 49.1875 393.75 49.1875C391.672 49.1875 389.898 48.4609 388.43 47.0078C386.977 45.5391 386.25 43.7656 386.25 41.6875C386.25 40.625 386.461 39.625 386.883 38.6875C387.305 37.7344 387.891 36.9062 388.641 36.2031C387.516 34.1094 385.992 32.625 384.07 31.75C382.164 30.875 379.766 30.4375 376.875 30.4375C374.984 30.4375 373.227 30.8203 371.602 31.5859C369.992 32.3516 368.594 33.4219 367.406 34.7969C366.234 36.1719 365.227 37.7969 364.383 39.6719C363.539 41.5469 362.906 43.6094 362.484 45.8594C362.078 48.0938 361.875 50.4531 361.875 52.9375C361.875 55.3906 362.125 57.75 362.625 60.0156C363.125 62.2812 363.852 64.3438 364.805 66.2031C365.758 68.0625 366.875 69.6875 368.156 71.0781C369.438 72.4531 370.906 73.5234 372.562 74.2891C374.234 75.0547 375.984 75.4375 377.812 75.4375C380.781 75.4375 383.281 74.4922 385.312 72.6016V60.4375H374.062V52ZM409.688 23.875H430.547L454.688 52.2812V31.375H447.188V23.875H471.562V31.375H464.062V82H458.438L426.562 44.5V74.5H434.062V82H409.688V74.5H417.188V31.375H409.688V23.875Z" fill="#E8E8E8"/>
</svg>
